<svg width="22" height="22" viewBox="0 0 22 22" fill="none" xmlns="http://www.w3.org/2000/svg">
<rect width="22" height="22" rx="3" fill="#1E56D4"/>
<path d="M11.4998 5C11.4162 5.00003 11.334 5.02101 11.2606 5.06101C11.1873 5.10102 11.1251 5.15877 11.0798 5.229L7.0878 11.217C7.03631 11.292 7.00625 11.3796 7.00087 11.4704C6.9955 11.5613 7.015 11.6518 7.05728 11.7324C7.09957 11.8129 7.16303 11.8804 7.24083 11.9276C7.31863 11.9747 7.40782 11.9998 7.4988 12H10.8898L10.0118 16.392C9.98671 16.5064 10.0026 16.626 10.0566 16.7299C10.1107 16.8338 10.1995 16.9154 10.3076 16.9605C10.4157 17.0056 10.5362 17.0114 10.6481 16.9767C10.7599 16.9421 10.8561 16.8693 10.9198 16.771L14.9118 10.783C14.9633 10.708 14.9933 10.6204 14.9987 10.5296C15.0041 10.4387 14.9846 10.3482 14.9423 10.2676C14.9 10.1871 14.8366 10.1196 14.7588 10.0724C14.681 10.0253 14.5918 10.0002 14.5008 10H11.1098L11.9878 5.608C12.004 5.53495 12.0035 5.4592 11.9865 5.38635C11.9695 5.31349 11.9364 5.24537 11.8895 5.18703C11.8427 5.12868 11.7834 5.08159 11.7159 5.04922C11.6485 5.01685 11.5746 5.00003 11.4998 5Z" fill="white"/>
</svg>
