<svg width="24" height="24" viewBox="0 0 24 24" fill="none" xmlns="http://www.w3.org/2000/svg">
<path d="M4.925 19.075C4.025 18.175 3.31267 17.1167 2.788 15.9C2.26333 14.6834 2.00067 13.3834 2 12C1.99933 10.6167 2.262 9.31672 2.788 8.10005C3.314 6.88338 4.02633 5.82505 4.925 4.92505L6 6.00005C5.21667 6.78338 4.60433 7.68338 4.163 8.70005C3.72167 9.71672 3.50067 10.8167 3.5 12C3.49933 13.1834 3.72033 14.2834 4.163 15.3C4.60567 16.3167 5.218 17.2167 6 18L4.925 19.075ZM7.05 16.95C6.41667 16.3167 5.91667 15.575 5.55 14.725C5.18333 13.875 5 12.9667 5 12C5 11.0334 5.18333 10.125 5.55 9.27505C5.91667 8.42505 6.41667 7.68338 7.05 7.05005L8.1 8.10005C7.6 8.60005 7.20833 9.18338 6.925 9.85005C6.64167 10.5167 6.5 11.2334 6.5 12C6.5 12.7667 6.64167 13.4834 6.925 14.15C7.20833 14.8167 7.6 15.4 8.1 15.9L7.05 16.95ZM11 16.5C11 16.1167 10.871 15.7377 10.613 15.363C10.355 14.9884 10.0673 14.5967 9.75 14.188C9.43267 13.7794 9.14533 13.354 8.888 12.912C8.63067 12.47 8.50133 11.9994 8.5 11.5C8.5 10.5334 8.84167 9.70838 9.525 9.02505C10.2083 8.34171 11.0333 8.00005 12 8.00005C12.9667 8.00005 13.7917 8.34171 14.475 9.02505C15.1583 9.70838 15.5 10.5334 15.5 11.5C15.5 12 15.371 12.471 15.113 12.913C14.855 13.355 14.5673 13.7797 14.25 14.187C13.9327 14.5944 13.6453 14.9864 13.388 15.363C13.1307 15.7397 13.0013 16.1187 13 16.5H11ZM11 19V17.5H13V19H11ZM16.95 16.95L15.9 15.9C16.4 15.4 16.7917 14.8167 17.075 14.15C17.3583 13.4834 17.5 12.7667 17.5 12C17.5 11.2334 17.3583 10.5167 17.075 9.85005C16.7917 9.18338 16.4 8.60005 15.9 8.10005L16.95 7.05005C17.5833 7.68338 18.0833 8.42505 18.45 9.27505C18.8167 10.125 19 11.0334 19 12C19 12.9667 18.8167 13.875 18.45 14.725C18.0833 15.575 17.5833 16.3167 16.95 16.95ZM19.075 19.075L18 18C18.7833 17.2167 19.396 16.3167 19.838 15.3C20.28 14.2834 20.5007 13.1834 20.5 12C20.4993 10.8167 20.2783 9.71672 19.837 8.70005C19.3957 7.68338 18.7833 6.78338 18 6.00005L19.075 4.92505C19.975 5.82505 20.6877 6.88338 21.213 8.10005C21.7383 9.31672 22.0007 10.6167 22 12C21.9993 13.3834 21.7367 14.6834 21.212 15.9C20.6873 17.1167 19.975 18.175 19.075 19.075Z" fill="black"/>
</svg>
