<svg width="24" height="24" viewBox="0 0 24 24" fill="none" xmlns="http://www.w3.org/2000/svg">
<path fill-rule="evenodd" clip-rule="evenodd" d="M12 13.8C11.7348 13.8 11.4804 13.6947 11.2929 13.5072C11.1054 13.3196 11 13.0653 11 12.8V7.80005C11 7.53483 11.1054 7.28048 11.2929 7.09294C11.4804 6.90541 11.7348 6.80005 12 6.80005C12.2652 6.80005 12.5196 6.90541 12.7071 7.09294C12.8946 7.28048 13 7.53483 13 7.80005V12.8C13 13.0653 12.8946 13.3196 12.7071 13.5072C12.5196 13.6947 12.2652 13.8 12 13.8Z" fill="black"/>
<path d="M10.947 15.958C10.947 15.6788 11.058 15.4109 11.2554 15.2134C11.4529 15.016 11.7207 14.905 12 14.905C12.2793 14.905 12.5471 15.016 12.7446 15.2134C12.9421 15.4109 13.053 15.6788 13.053 15.958C13.053 16.2373 12.9421 16.5051 12.7446 16.7026C12.5471 16.9001 12.2793 17.011 12 17.011C11.7207 17.011 11.4529 16.9001 11.2554 16.7026C11.058 16.5051 10.947 16.2373 10.947 15.958Z" fill="black"/>
<path fill-rule="evenodd" clip-rule="evenodd" d="M15.607 4.64201L21.483 15.362C22.995 18.121 21.01 21.5 17.876 21.5H6.12399C2.98999 21.5 1.00399 18.12 2.51699 15.361L8.39299 4.64101C9.95899 1.78601 14.041 1.78601 15.607 4.64101V4.64201ZM13.803 5.64201C13.021 4.21301 10.979 4.21301 10.197 5.64201L4.31999 16.36C3.56299 17.74 4.55599 19.429 6.12299 19.429H17.875C19.442 19.429 20.435 17.739 19.678 16.359L13.803 5.64201Z" fill="black"/>
</svg>
