<svg width="93" height="38" viewBox="0 0 93 38" fill="none" xmlns="http://www.w3.org/2000/svg">
<g clip-path="url(#clip0_198_1603)">
<path d="M85.2339 31.7497L85.1543 27.4923C87.2635 26.275 88.6678 23.9878 88.6223 21.3892C88.5541 17.5733 85.3988 14.5444 81.5669 14.6067C78.9744 14.6576 76.7344 16.1126 75.5916 18.2357H75.5803C77.1267 15.4049 80.1057 13.4687 83.5624 13.4121C88.6792 13.3215 92.9033 17.3751 92.9943 22.4762C93.0796 27.1243 89.7025 31.025 85.2282 31.7497H85.2339Z" fill="url(#paint0_linear_198_1603)"/>
<path d="M91.698 15.671L87.8264 13.8594C87.6615 11.4362 86.2174 9.17163 83.858 8.06764C80.3957 6.44845 76.2682 7.93176 74.6365 11.3796C73.5335 13.7178 73.8633 16.3617 75.2676 18.3263C73.4028 15.705 72.9707 12.1892 74.4432 9.06973C76.615 4.4556 82.1411 2.46841 86.7746 4.64243C90.9988 6.61263 93.0284 11.357 91.7094 15.671H91.698Z" fill="url(#paint1_linear_198_1603)"/>
<path d="M79.992 2.43445L76.6718 5.118C74.4091 4.21216 71.737 4.5292 69.713 6.16537C66.7396 8.57151 66.2905 12.9139 68.7067 15.8748C70.3384 17.879 72.8741 18.7282 75.2619 18.3206C72.0781 18.8641 68.7067 17.7262 66.5236 15.0483C63.2943 11.0909 63.897 5.27652 67.871 2.06079C71.4925 -0.86621 76.6605 -0.634088 79.992 2.42312V2.43445Z" fill="url(#paint2_linear_198_1603)"/>
<path d="M55.4998 23.6254C54.3798 22.4705 52.8391 21.8987 50.8947 21.8987C49.8941 21.8987 48.9902 22.0855 48.1374 22.3799C46.8923 22.8215 45.7837 23.5349 44.8513 24.6105C44.4761 25.0408 43.9814 25.8164 43.9814 25.8164C43.9189 25.9184 43.8222 26.0825 43.7768 26.1844L39.7516 34.2577C39.7004 34.3597 39.6492 34.3483 39.6492 34.2351L39.0239 22.5951C39.0239 22.4762 38.9158 22.3799 38.8021 22.3799H36.3916C36.2722 22.3799 36.1414 22.4705 36.0959 22.5781L30.9962 34.1105C30.9451 34.2181 30.8996 34.2125 30.8882 34.0992L29.5465 22.5951C29.5351 22.4818 29.4271 22.3856 29.3134 22.3856H25.1859C25.0722 22.3856 24.9926 22.295 25.0153 22.1874L25.8112 18.4791C25.834 18.3659 25.7601 18.2697 25.6407 18.2697H23.4973C23.3836 18.2697 23.2699 18.3603 23.2415 18.4791L22.4512 22.1874C22.4228 22.3007 22.3091 22.3856 22.1897 22.3856H20.433C20.3136 22.3856 20.2055 22.4818 20.1771 22.5951L19.8019 24.2822C19.7735 24.3954 19.8474 24.486 19.9668 24.486H21.7576C21.8713 24.486 21.9509 24.5766 21.9225 24.6955L20.0577 33.3915C20.035 33.5048 19.9952 33.6916 19.9725 33.8048C19.9725 33.8048 19.8644 34.4389 19.8189 34.7333C19.7848 35.0277 19.7564 35.2598 19.7564 35.4523C19.7564 36.2732 20.0236 36.8847 20.5524 37.2923C21.0811 37.6999 21.8884 37.9038 22.9686 37.9038C23.1846 37.9038 23.4462 37.8754 23.7532 37.8188C24.0602 37.7679 24.5491 37.6377 24.5491 37.6377C24.6628 37.6094 24.7708 37.4961 24.7936 37.3772L25.1176 35.8373C25.1404 35.7241 25.0722 35.6505 24.9585 35.6675C24.9585 35.6675 24.5662 35.7354 24.2933 35.758C24.0261 35.7864 23.7702 35.8033 23.5201 35.8033C23.1505 35.8033 22.8606 35.7241 22.6559 35.5769C22.4512 35.424 22.3432 35.2145 22.3432 34.9428C22.3432 34.8239 22.366 34.671 22.3944 34.4899C22.4228 34.3087 22.474 34.0653 22.474 34.0653C22.5024 33.952 22.5422 33.7652 22.5649 33.6576L24.4752 24.6955C24.5036 24.5766 24.6116 24.486 24.731 24.486H27.1018C27.2212 24.486 27.3235 24.5822 27.3406 24.6955L28.9893 37.6999C29.0007 37.8132 29.1087 37.9094 29.2224 37.9094H31.3942C31.5136 37.9094 31.6444 37.8188 31.6898 37.7169L36.8919 26.1505C36.9374 26.0429 36.9828 26.0599 36.9885 26.1675L37.6366 37.6999C37.6366 37.8132 37.7447 37.9094 37.8584 37.9094H40.0586C40.1723 37.9094 40.3087 37.8188 40.3656 37.7226L41.7301 35.1296C41.7869 35.022 41.8722 34.8522 41.9234 34.756L46.9264 26.0656C46.9833 25.9693 47.1027 25.8164 47.1766 25.7259C47.1766 25.7259 47.9157 24.9502 48.433 24.6672C49.0755 24.3161 49.8032 24.135 50.6105 24.135C51.8612 24.135 52.8164 24.469 53.4702 25.1371C54.124 25.8051 54.4537 26.7732 54.4537 28.0584C54.4537 30.3287 53.9307 32.1913 52.8846 33.6406C51.8442 35.0843 50.4968 35.809 48.8594 35.809C47.6712 35.809 46.7615 35.458 46.1191 34.7673C45.4767 34.0709 45.1583 33.0745 45.1583 31.7837C45.1583 31.4836 45.1867 31.0647 45.1867 31.0647C45.1981 30.9458 45.1583 30.9401 45.0958 31.0364L43.1514 34.4106C43.0888 34.5125 43.0888 34.6767 43.1457 34.7786C43.1457 34.7786 43.6687 35.8203 44.1406 36.3129C45.2379 37.4338 46.7843 38 48.7798 38C51.2416 38 53.2541 37.0998 54.829 35.2881C56.3981 33.4821 57.1827 31.1666 57.1827 28.3528C57.1827 26.3543 56.6255 24.7861 55.4942 23.6254H55.4998Z" fill="#303D6E"/>
<path d="M50.9345 20.2682C50.9857 20.3701 50.9345 20.4607 50.8151 20.472L49.4222 20.5682C49.3028 20.5739 49.1493 20.506 49.0754 20.421L45.3288 15.9654C45.2549 15.8805 45.289 15.8013 45.4027 15.8013H48.4785C48.5979 15.8013 48.7343 15.8862 48.7855 15.9937L50.9288 20.2682H50.9345Z" fill="url(#paint3_linear_198_1603)"/>
<path d="M15.0717 18.598C15.0547 18.4848 14.941 18.3942 14.8273 18.3942H10.08C10.08 18.3942 10.0402 18.3942 10.0175 18.3942C10.0175 18.3942 9.9777 18.3942 9.96064 18.3942C9.15333 18.4169 8.45404 18.8754 8.09586 19.5492C8.08449 19.5661 8.07881 19.5831 8.06744 19.6001C8.0447 19.6397 8.01627 19.685 7.99921 19.7303L0.272903 34.2634C0.096659 34.6144 -0.00567627 35.0051 -0.00567627 35.4184C-0.00567627 36.8451 1.14844 37.9943 2.56976 37.9943C3.54763 37.9943 4.39474 37.4508 4.83251 36.6469V36.6299L4.87799 36.562L6.96449 32.4121C7.01566 32.3045 7.15211 32.2253 7.2715 32.2253H14.5771C14.6908 32.2253 14.8045 32.3158 14.8216 32.4291L15.6289 37.7849C15.6459 37.9037 15.754 37.9943 15.8733 37.9943H18.0679C18.1816 37.9943 18.2612 37.8981 18.2441 37.7849L15.0717 18.5924M14.2076 29.955H8.45404C8.34033 29.955 8.28916 29.8757 8.34033 29.7738L12.9113 21.2306C12.9682 21.1287 13.025 21.1344 13.0421 21.2533L14.3895 29.7455C14.4065 29.8644 14.3269 29.955 14.2076 29.955Z" fill="#303D6E"/>
<path d="M80.083 18.7169L80.0716 18.7113L80.0546 18.7169H80.083Z" fill="#39AE4B"/>
<path d="M80.0887 18.7169H76.1318C76.0181 18.7169 75.8759 18.7962 75.8191 18.8981L67.257 34.4616C67.2002 34.5635 67.1376 34.5521 67.1263 34.4389L65.0568 18.9207C65.0455 18.8132 64.9374 18.7169 64.818 18.7169H61.5149C61.3955 18.7169 61.2818 18.8075 61.259 18.9207L57.2566 37.7962C57.2339 37.9094 57.3078 38 57.4272 38H59.4909C59.6046 38 59.7183 37.9038 59.7411 37.7962L62.868 22.7762C62.9135 22.5101 62.9419 22.2667 62.9646 22.0402C62.9874 21.8194 62.9874 21.5816 62.9874 21.5816C62.9874 21.4684 62.9874 21.3099 62.9874 21.2306C62.9874 21.157 63.0044 21.1853 63.0158 21.2986L65.2501 37.7962C65.2672 37.9151 65.3752 38.0057 65.4889 38.0057H67.547C67.6664 38.0057 67.8085 37.9207 67.8597 37.8245L77.0187 21.3269C76.8936 21.5986 76.7856 21.893 76.6832 22.2044C76.5923 22.5158 76.4501 23.0876 76.4501 23.0876C76.4217 23.1952 76.3819 23.382 76.3535 23.4952L73.9316 34.8409C73.8918 35.0164 73.8747 35.2032 73.8747 35.3844C73.8747 36.8054 75.0061 37.9547 76.4217 38C76.4501 38 76.4786 38 76.507 38C76.5354 38 76.5639 38 76.5923 38C77.8089 37.9604 78.8152 37.0998 79.0767 35.9619C79.0767 35.9449 79.0881 35.9336 79.0938 35.9166C79.0938 35.8996 79.0938 35.8883 79.0995 35.8713L82.198 21.3495V21.3439V21.3212C82.2264 21.1853 82.2435 21.0438 82.2435 20.8966C82.2435 19.6964 81.277 18.7282 80.0774 18.7169H80.0887Z" fill="#303D6E"/>
</g>
<defs>
<linearGradient id="paint0_linear_198_1603" x1="83.6704" y1="13.3725" x2="85.3224" y2="31.7396" gradientUnits="userSpaceOnUse">
<stop stop-color="#3ABAE2"/>
<stop offset="0.42" stop-color="#2195C7"/>
<stop offset="0.78" stop-color="#117CB6"/>
<stop offset="1" stop-color="#0B74B0"/>
</linearGradient>
<linearGradient id="paint1_linear_198_1603" x1="74.4432" y1="8.96216" x2="91.7135" y2="15.6176" gradientUnits="userSpaceOnUse">
<stop stop-color="#9FC444"/>
<stop offset="0.15" stop-color="#7FBB4A"/>
<stop offset="0.44" stop-color="#49AD55"/>
<stop offset="0.68" stop-color="#21A25E"/>
<stop offset="0.88" stop-color="#089C63"/>
<stop offset="1" stop-color="#009A65"/>
</linearGradient>
<linearGradient id="paint2_linear_198_1603" x1="66.4383" y1="14.9973" x2="79.865" y2="2.29899" gradientUnits="userSpaceOnUse">
<stop stop-color="#F2B525"/>
<stop offset="0.4" stop-color="#EC942C"/>
<stop offset="0.77" stop-color="#E77B31"/>
<stop offset="1" stop-color="#E67334"/>
</linearGradient>
<linearGradient id="paint3_linear_198_1603" x1="50.0874" y1="20.6418" x2="47.0468" y2="15.9198" gradientUnits="userSpaceOnUse">
<stop stop-color="#F2B525"/>
<stop offset="0.38" stop-color="#ED962B"/>
<stop offset="0.77" stop-color="#EA7D31"/>
<stop offset="1" stop-color="#E97533"/>
</linearGradient>
<clipPath id="clip0_198_1603">
<rect width="93" height="38" fill="white"/>
</clipPath>
</defs>
</svg>
