<svg width="24" height="24" viewBox="0 0 24 24" fill="none" xmlns="http://www.w3.org/2000/svg">
<path d="M9.42141 6.75521V16.4148C9.4148 16.5404 9.43149 16.6662 9.46973 16.7791C9.50798 16.8921 9.56637 16.9879 9.63877 17.0566C9.71118 17.1252 9.79493 17.1642 9.88123 17.1694C9.96753 17.1746 10.0532 17.1458 10.1292 17.0861L15.7926 12.144C15.8563 12.0833 15.9086 12.0004 15.9448 11.9028C15.981 11.8052 16 11.696 16 11.585C16 11.474 15.981 11.3648 15.9448 11.2672C15.9086 11.1696 15.8563 11.0867 15.7926 11.026L10.1292 6.08391C10.0532 6.02418 9.96753 5.9954 9.88123 6.0006C9.79493 6.00579 9.71118 6.04477 9.63877 6.11344C9.56637 6.18211 9.50798 6.27794 9.46973 6.39086C9.43149 6.50379 9.4148 6.62964 9.42141 6.75521Z" fill="black"/>
</svg>
