<svg width="24" height="24" viewBox="0 0 24 24" fill="none" xmlns="http://www.w3.org/2000/svg">
<path d="M14.69 17.2902C14.7827 17.1977 14.8562 17.0878 14.9064 16.9668C14.9566 16.8459 14.9824 16.7162 14.9824 16.5852C14.9824 16.4543 14.9566 16.3246 14.9064 16.2036C14.8562 16.0826 14.7827 15.9727 14.69 15.8802L10.81 12.0002L14.69 8.12022C14.877 7.93325 14.982 7.67965 14.982 7.41523C14.982 7.1508 14.877 6.8972 14.69 6.71022C14.503 6.52325 14.2494 6.4182 13.985 6.4182C13.7206 6.4182 13.467 6.52325 13.28 6.71022L8.68998 11.3002C8.59727 11.3927 8.52373 11.5026 8.47355 11.6236C8.42336 11.7446 8.39753 11.8743 8.39753 12.0052C8.39753 12.1362 8.42336 12.2659 8.47355 12.3868C8.52373 12.5078 8.59727 12.6177 8.68998 12.7102L13.28 17.3002C13.66 17.6802 14.3 17.6802 14.69 17.2902Z" fill="black"/>
</svg>
