<svg width="170" height="60" viewBox="0 0 170 60" fill="none" xmlns="http://www.w3.org/2000/svg">
<path d="M61.0576 12.1648L73.8035 4.74512L85.0453 11.2446L72.2953 18.6643L61.0576 12.1648Z" fill="#CEE3F2"/>
<path d="M85.033 17.2693L97.783 9.84961L97.7583 18.594L85.0083 26.0137L85.033 17.2693Z" fill="url(#paint0_linear_3597_90874)"/>
<path d="M72.3198 9.91972L85.0698 2.5L97.7827 9.84957L85.0327 17.2693L72.3198 9.91972Z" fill="#CEE3F2"/>
<path d="M96.2499 32.5135L109 25.0938L108.942 50.0806L96.1963 57.5003L96.2499 32.5135Z" fill="url(#paint1_linear_3597_90874)"/>
<path d="M85.0083 26.0135L97.7583 18.5938L109 25.0932L96.2501 32.5129L85.0083 26.0135Z" fill="#CEE3F2"/>
<path d="M85.033 17.2695L85.0082 26.0139L96.25 32.5133L96.1964 57.5002L84.5673 50.7738L84.2582 50.5963L72.9382 44.0515L72.625 43.874L61 37.1517L61.0577 12.1648L72.2953 18.6643L72.3201 9.91992L85.033 17.2695Z" fill="#89ACE0"/>
<path d="M65.6193 18.9277L65.5122 24.0654L69.7856 26.5455L69.8968 21.4244L65.6193 18.9277Z" stroke="white" stroke-width="1.5" stroke-linecap="round" stroke-linejoin="round"/>
<path d="M72.662 23.0049L72.5508 28.1384L76.8283 30.6186L76.9395 25.4974L72.662 23.0049Z" stroke="white" stroke-width="1.5" stroke-linecap="round" stroke-linejoin="round"/>
<path d="M79.7004 27.082L79.5933 32.2156L83.8707 34.6957L83.982 29.5745L79.7004 27.082Z" stroke="white" stroke-width="1.5" stroke-linecap="round" stroke-linejoin="round"/>
<path d="M86.7429 31.1553L86.6357 36.293L90.9091 38.7731L91.0204 33.6519L86.7429 31.1553Z" stroke="white" stroke-width="1.5" stroke-linecap="round" stroke-linejoin="round"/>
<path d="M65.6193 27.041L65.5122 32.1746L69.7856 34.6547L69.8968 29.5335L65.6193 27.041Z" stroke="white" stroke-width="1.5" stroke-linecap="round" stroke-linejoin="round"/>
<path d="M86.7434 39.1738L86.6362 44.3074L90.9096 46.7875L91.0208 41.6663L86.7434 39.1738Z" stroke="white" stroke-width="1.5" stroke-linecap="round" stroke-linejoin="round"/>
<path d="M78.5382 16.1592C80.4462 17.261 81.9874 19.9351 81.9833 22.1264C81.975 24.3217 80.4256 25.2048 78.5176 24.103C76.6097 23.0012 75.0685 20.3271 75.0767 18.1318C75.0849 15.9405 76.6344 15.0533 78.5424 16.1551L78.5382 16.1592Z" fill="#FF99CC"/>
<path d="M80.0674 23.8056C79.7254 23.8056 79.3257 23.6777 78.9054 23.4342C77.2405 22.4727 75.8435 20.0462 75.8477 18.1356C75.8477 17.628 75.9631 16.4561 76.9891 16.4561C77.3312 16.4561 77.7309 16.584 78.1512 16.8275C79.812 17.789 81.2131 20.2154 81.2089 22.1261C81.2089 22.6337 81.0935 23.8056 80.0633 23.8056H80.0674Z" fill="white"/>
<path d="M78.6332 20.7561C78.5755 20.7561 78.5055 20.7355 78.4313 20.6942C78.1428 20.5292 77.9038 20.1083 77.9038 19.7781C77.9038 19.6915 77.9244 19.4893 78.1016 19.4893C78.1593 19.4893 78.2294 19.5099 78.3035 19.5553C78.592 19.7204 78.8351 20.1413 78.831 20.4714C78.831 20.5581 78.8104 20.7603 78.6332 20.7603V20.7561Z" fill="#FF71BF"/>
<path d="M78.5755 17.6326L78.5714 20.4139L78.1387 20.1622L78.1469 17.3809L78.5755 17.6326Z" fill="#FF71BF"/>
<path d="M79.7911 20.7273V21.2307L78.2334 20.3394L78.2375 19.8359L79.7911 20.7273Z" fill="#FF71BF"/>
<path d="M74.125 32.9756L74.1703 44.753L81.9505 49.2057L81.9093 37.5149L74.125 32.9756Z" fill="#FF99CC"/>
<defs>
<linearGradient id="paint0_linear_3597_90874" x1="85.3792" y1="16.8938" x2="109.282" y2="21.0093" gradientUnits="userSpaceOnUse">
<stop stop-color="#5776C4"/>
<stop offset="1" stop-color="#A6C3ED"/>
</linearGradient>
<linearGradient id="paint1_linear_3597_90874" x1="97.1482" y1="37.6016" x2="123.957" y2="55.7241" gradientUnits="userSpaceOnUse">
<stop stop-color="#5776C4"/>
<stop offset="1" stop-color="#A6C3ED"/>
</linearGradient>
</defs>
</svg>
