<svg width="170" height="60" viewBox="0 0 170 60" fill="none" xmlns="http://www.w3.org/2000/svg">
<g clip-path="url(#clip0_3597_91128)">
<path d="M81.8365 31.4366L91.1119 28.933L91.0321 57.5003L81.7789 52.2077L80.5108 51.4829L80.0098 51.193L80.0409 40.8932L73.0622 36.9006L73.0311 47.2049L72.5257 46.915L71.2576 46.1903L62 40.8976L62.0532 22.0855L72.6055 18.3477L72.5833 26.1439L81.8587 23.6403L81.8365 31.4366Z" fill="#CEE3F2"/>
<path d="M68.4823 26.6007L68.4734 30.0925L65.4053 28.34L65.4141 24.8438L68.4823 26.6007Z" stroke="white" stroke-width="1.5" stroke-linecap="round" stroke-linejoin="round"/>
<path d="M80.0366 40.893L80.0056 51.1928L73.0269 47.2047L73.0535 36.9004L80.0366 40.893Z" fill="#FF99CC"/>
<path d="M74.8979 30.2686L74.8846 33.7605L71.8164 32.008L71.8253 28.5117L74.8979 30.2686Z" stroke="white" stroke-width="1.5" stroke-linecap="round" stroke-linejoin="round"/>
<path d="M81.309 33.9356L81.2957 37.4275L78.2275 35.675L78.2364 32.1787L81.309 33.9356Z" stroke="white" stroke-width="1.5" stroke-linecap="round" stroke-linejoin="round"/>
<path d="M72.6057 18.3475L89.4938 8.62305L89.4716 16.4237L72.5835 26.1438L72.6057 18.3475Z" fill="url(#paint0_linear_3597_91128)"/>
<path d="M62.0532 22.0854L78.9413 12.3609L89.4936 8.62305L72.6055 18.3475L62.0532 22.0854Z" fill="#B7CFED"/>
<path d="M87.7202 37.6031L87.7113 41.095L84.6343 39.338L84.6476 35.8418L87.7202 37.6031Z" stroke="white" stroke-width="1.5" stroke-linecap="round" stroke-linejoin="round"/>
<path d="M72.5835 26.1441L89.4716 16.424L98.747 13.916L81.8589 23.6405L72.5835 26.1441Z" fill="#B7CFED"/>
<path d="M81.8586 23.6405L98.7467 13.916L98.7245 21.7167L81.8364 31.4368L81.8586 23.6405Z" fill="url(#paint1_linear_3597_91128)"/>
<path d="M81.8364 31.4361L98.7245 21.716L108 19.208L91.1118 28.9325L81.8364 31.4361Z" fill="#B7CFED"/>
<path d="M91.112 28.9325L108 19.208L107.92 47.7797L91.0322 57.4998L91.112 28.9325Z" fill="url(#paint2_linear_3597_91128)"/>
<path d="M76.5294 4.20898C76.4274 4.46813 76.1925 4.71849 75.8112 4.92053C74.7692 5.47396 73.0755 5.47396 72.0336 4.92053C71.6567 4.72288 71.4218 4.47691 71.3154 4.22216L70.1094 17.6933L77.3718 13.4635L76.5294 4.20898Z" fill="#FF99CC"/>
<path d="M75.7976 2.91312C74.7512 2.35969 73.0575 2.35969 72.0156 2.91312C71.3505 3.26889 71.1155 3.76522 71.3062 4.22201C71.4126 4.47676 71.652 4.72273 72.0244 4.92038C73.0708 5.47381 74.7645 5.47381 75.802 4.92038C76.1833 4.71834 76.4183 4.46798 76.5203 4.20884C76.6976 3.75643 76.4538 3.26889 75.7887 2.91751L75.7976 2.91312Z" fill="#FF71BF"/>
</g>
<defs>
<linearGradient id="paint0_linear_3597_91128" x1="80.4002" y1="12.1588" x2="83.9648" y2="41.8586" gradientUnits="userSpaceOnUse">
<stop stop-color="#5776C4"/>
<stop offset="1" stop-color="#A6C3ED"/>
</linearGradient>
<linearGradient id="paint1_linear_3597_91128" x1="89.9369" y1="18.6114" x2="93.0571" y2="55.2786" gradientUnits="userSpaceOnUse">
<stop stop-color="#5776C4"/>
<stop offset="1" stop-color="#A6C3ED"/>
</linearGradient>
<linearGradient id="paint2_linear_3597_91128" x1="98.9021" y1="24.0703" x2="100.686" y2="66.3561" gradientUnits="userSpaceOnUse">
<stop stop-color="#5776C4"/>
<stop offset="1" stop-color="#A6C3ED"/>
</linearGradient>
<clipPath id="clip0_3597_91128">
<rect width="89" height="55" fill="white" transform="translate(40.5 2.5)"/>
</clipPath>
</defs>
</svg>
