<svg width="170" height="60" viewBox="0 0 170 60" fill="none" xmlns="http://www.w3.org/2000/svg">
<path d="M122 33.109L110.391 34.0508L79.0498 15.4242L90.6594 14.4824L122 33.109Z" fill="#89ACE0"/>
<path d="M100.781 45.3709L110.391 34.0504L79.0498 15.4238L69.4448 26.7444L100.781 45.3709Z" fill="#B7CFED"/>
<path d="M113.935 31.2161L106.311 31.6061L83.2939 17.855L90.9977 17.2129L113.935 31.2161Z" fill="#CEE3F2"/>
<path d="M96.49 42.8452L106.456 31.5294L83.4345 17.7783L73.4727 29.0941L96.49 42.8452Z" fill="white"/>
<path d="M100.781 45.3707L89.1757 46.3077L57.835 27.6812L69.4446 26.7441L100.781 45.3707Z" fill="#89ACE0"/>
<path d="M79.336 57.5003L89.1758 46.3082L57.8351 27.6816L48 38.8737L79.336 57.5003Z" fill="#B7CFED"/>
<path d="M96.6166 42.7356L84.7629 43.6965L61.7456 29.9453L73.6838 28.7324L96.6166 42.7356Z" fill="#CEE3F2"/>
<path d="M78.0075 51.5783L84.993 43.6349L61.9757 29.8838L54.9902 37.8272L78.0075 51.5783Z" fill="white"/>
<path d="M83.1437 9.92827C81.2687 11.0265 79.755 13.6836 79.7612 15.8673C79.7612 18.0511 81.2936 18.9347 83.1686 17.8365C85.0436 16.7383 86.5573 14.0749 86.5511 11.8974C86.5511 9.71368 85.0187 8.83639 83.1437 9.92827Z" fill="white"/>
<path d="M90.5252 9.76514C90.5314 12.113 89.7341 14.2147 88.4197 17.0296L83.1934 28.5796L77.9173 23.1707C76.8708 21.738 75.7807 20.7407 75.7744 18.3929C75.762 13.653 79.0572 7.87802 83.1249 5.49861C87.1988 3.11919 90.5065 5.03156 90.5189 9.77145L90.5252 9.76514ZM83.1685 17.8375C85.0435 16.7393 86.5572 14.0759 86.551 11.8984C86.551 9.71465 85.0186 8.83736 83.1436 9.92924C81.2686 11.0274 79.7549 13.6846 79.7611 15.8683C79.7611 18.0521 81.2935 18.9357 83.1685 17.8375Z" fill="#FF99CC"/>
<path d="M72.417 16.0696C72.417 15.9497 72.4232 15.8298 72.4357 15.7099C72.4357 15.653 72.4419 15.5962 72.4481 15.5394C72.4481 15.5142 72.4481 15.4953 72.4481 15.47C72.4481 15.4258 72.4481 15.3817 72.4606 15.3438C72.4731 15.2239 72.4855 15.0976 72.498 14.9777C72.5167 14.8515 72.5291 14.7253 72.5478 14.6053C72.5478 14.6053 72.5478 14.599 72.5478 14.5927V14.5801C72.5665 14.4665 72.5852 14.3466 72.6101 14.233C72.635 14.1004 72.6599 13.9742 72.6911 13.8417C72.7035 13.7975 72.716 13.747 72.7222 13.7028C72.7222 13.6776 72.7347 13.6523 72.7409 13.6208C72.7534 13.564 72.7658 13.5072 72.7783 13.4504C72.8094 13.3178 72.8468 13.1853 72.878 13.0527C72.9029 12.9581 72.934 12.8571 72.9589 12.7624C72.9589 12.7435 72.9714 12.7245 72.9776 12.7056C72.9776 12.6867 72.9839 12.674 72.9901 12.6551C73.0275 12.5289 73.0711 12.3963 73.1147 12.2701C73.1583 12.1439 73.2019 12.0177 73.2455 11.8914C73.2517 11.8662 73.2642 11.8409 73.2704 11.822C73.2766 11.8031 73.2829 11.7778 73.2953 11.7589C73.3202 11.6832 73.3514 11.6074 73.3825 11.5317C73.4261 11.4118 73.476 11.2918 73.5258 11.1656C73.5632 11.0773 73.6005 10.9889 73.6379 10.9005C73.6379 10.8879 73.6504 10.869 73.6566 10.8564C73.6628 10.8374 73.6691 10.8248 73.6753 10.8059C73.7314 10.6859 73.7812 10.566 73.8372 10.4461C73.8995 10.3136 73.9618 10.181 74.0241 10.0485C74.0366 10.0296 74.0428 10.0106 74.0553 9.99168C74.0677 9.96644 74.0864 9.93488 74.0989 9.90964C74.1487 9.80865 74.1985 9.70767 74.2546 9.60669C74.3231 9.47415 74.3979 9.34792 74.4664 9.22169C74.5038 9.15857 74.5349 9.09546 74.5723 9.03234C74.5848 9.0071 74.5972 8.98185 74.6159 8.95661C74.6782 8.843 74.7529 8.73571 74.8215 8.62841C74.9211 8.46431 75.0146 8.30653 75.1205 8.14874C75.1392 8.1235 75.1516 8.09825 75.1703 8.07301C75.3198 7.84579 75.4755 7.61858 75.6375 7.39768C75.7434 7.25252 75.8555 7.10735 75.9676 6.96219C76.0548 6.84859 76.1483 6.73498 76.2355 6.62137C76.2355 6.62137 76.2417 6.60875 76.2479 6.60875C76.3414 6.49514 76.4348 6.38154 76.5345 6.26793C76.6279 6.16064 76.7276 6.05334 76.821 5.94605C76.8397 5.92711 76.8522 5.91449 76.8709 5.89556C76.8896 5.87662 76.902 5.85769 76.9207 5.84507C76.9892 5.77564 77.0515 5.6999 77.1263 5.63048C77.2259 5.52318 77.3318 5.4222 77.4377 5.32122C77.4689 5.28966 77.5 5.2581 77.5374 5.22654C77.5623 5.2013 77.5872 5.18236 77.6121 5.15712C77.662 5.10663 77.7118 5.06245 77.7679 5.01195C77.8738 4.91097 77.9859 4.8163 78.098 4.72163C78.1479 4.68376 78.1977 4.63958 78.2413 4.60171C78.2662 4.58278 78.2911 4.55753 78.316 4.5386C78.3534 4.50704 78.3908 4.47548 78.4219 4.45024C78.5278 4.36188 78.64 4.27983 78.7459 4.19778C78.8206 4.14098 78.9016 4.08417 78.9826 4.02737C78.995 4.01475 79.0137 4.00844 79.0262 3.99581C79.0386 3.9895 79.0511 3.97688 79.0635 3.96425C79.1694 3.89483 79.2691 3.81909 79.375 3.75598C79.4747 3.68655 79.5806 3.62344 79.6865 3.56032C79.7114 3.5477 79.7363 3.53508 79.7612 3.51614C79.8422 3.47196 79.9169 3.42778 79.9979 3.3836C80.0976 3.3268 80.1973 3.27631 80.2969 3.22582C80.3654 3.19426 80.4277 3.1627 80.49 3.13114C80.5025 3.12483 80.5212 3.11852 80.5336 3.11221C80.5523 3.1059 80.571 3.09328 80.5959 3.08696C80.6956 3.04278 80.7953 2.9986 80.8887 2.96074C80.9884 2.92287 81.088 2.885 81.1877 2.84713C81.2064 2.84713 81.2188 2.83451 81.2375 2.8282C81.25 2.8282 81.2687 2.81557 81.2811 2.81557C81.3497 2.79033 81.4119 2.77139 81.4805 2.74615C81.5801 2.71459 81.686 2.68934 81.7857 2.6641C81.8355 2.65147 81.8791 2.64516 81.929 2.63254C81.9477 2.63254 81.9726 2.61992 81.9913 2.61992C82.0224 2.61361 82.0536 2.60729 82.0847 2.60098C82.1906 2.58205 82.3027 2.56311 82.4086 2.54418C82.4709 2.53787 82.5394 2.53156 82.6017 2.52525C82.6266 2.52525 82.6516 2.52525 82.6702 2.51893C82.6889 2.51893 82.7138 2.51893 82.7325 2.51262C82.8509 2.50631 82.963 2.5 83.0814 2.5C83.1312 2.5 83.181 2.5 83.2309 2.50631C83.2682 2.50631 83.3118 2.50631 83.3492 2.50631C83.3866 2.50631 83.4302 2.50631 83.4676 2.50631C83.6109 2.51893 83.7541 2.54418 83.8912 2.56943C83.8912 2.56943 83.8912 2.56943 83.8974 2.56943C83.9285 2.57574 83.9535 2.58836 83.9846 2.59467C84.1279 2.62623 84.2711 2.6641 84.402 2.70828C84.4144 2.70828 84.4206 2.7209 84.4331 2.7209C84.6324 2.79033 84.8193 2.87869 85 2.98598L88.37 4.96777C88.1893 4.86048 88.0024 4.77843 87.8031 4.70269C87.6598 4.6522 87.5166 4.60802 87.3671 4.57647C87.3297 4.57015 87.2985 4.55753 87.2674 4.55122C87.0867 4.51335 86.9061 4.49442 86.7192 4.48179C86.6818 4.48179 86.6445 4.48179 86.6009 4.48179C86.4202 4.47548 86.2333 4.48179 86.0402 4.49442C86.0153 4.49442 85.9904 4.49442 85.9717 4.50073C85.7724 4.51966 85.573 4.55122 85.3675 4.5954C85.3426 4.5954 85.3239 4.60802 85.299 4.60802C85.0872 4.65851 84.8754 4.71532 84.6574 4.79105C84.6387 4.79105 84.62 4.80368 84.6075 4.80999C84.377 4.88573 84.1466 4.9804 83.9099 5.094C83.8912 5.10032 83.8725 5.11294 83.8538 5.11925C83.6171 5.23286 83.3741 5.35908 83.1312 5.50425C82.882 5.64941 82.6391 5.8072 82.3962 5.97761C82.3775 5.99023 82.365 6.00285 82.3463 6.01547C82.1221 6.17326 81.9041 6.34367 81.686 6.52039C81.6611 6.53932 81.63 6.56457 81.605 6.5835C81.3933 6.76022 81.1877 6.94326 80.9884 7.1326C80.9572 7.15785 80.9323 7.18309 80.9074 7.20834C80.7018 7.40399 80.4963 7.61227 80.3032 7.82055C80.2845 7.83948 80.2658 7.85842 80.2471 7.87735C80.0353 8.11087 79.8297 8.3444 79.6242 8.59054C79.6242 8.59054 79.6242 8.59054 79.6179 8.59685C79.4124 8.843 79.213 9.10177 79.0262 9.36685C79.0262 9.36685 79.0199 9.37316 79.0137 9.37947C79.0075 9.3921 79.0013 9.39841 78.995 9.41103C78.8268 9.64455 78.6586 9.88439 78.5029 10.1305C78.397 10.2946 78.2974 10.465 78.1915 10.6291C78.1167 10.7554 78.0357 10.8816 77.961 11.0141C77.9236 11.0773 77.8862 11.1467 77.8488 11.2161C77.718 11.4496 77.5935 11.6768 77.4751 11.9104C77.4626 11.9356 77.4502 11.9609 77.4377 11.9798C77.2945 12.2638 77.1574 12.5541 77.0328 12.8508C77.0328 12.8634 77.0204 12.876 77.0141 12.8886C76.8896 13.1727 76.7774 13.463 76.6715 13.7533C76.6653 13.7722 76.6591 13.7912 76.6528 13.8101C76.5469 14.1067 76.4473 14.4034 76.3601 14.7C76.3601 14.719 76.3476 14.7379 76.3476 14.7505C76.2604 15.0345 76.1857 15.3185 76.1234 15.6026C76.1171 15.6341 76.1109 15.6594 76.1047 15.6909C76.0424 15.9812 75.9801 16.2716 75.9365 16.5619C75.9365 16.5682 75.9365 16.5808 75.9365 16.5871C75.8929 16.8775 75.8555 17.1678 75.8306 17.4581C75.8306 17.4834 75.8306 17.5086 75.8306 17.5339C75.8057 17.8242 75.7932 18.1082 75.7994 18.3922C75.7994 18.6825 75.8181 18.9539 75.8493 19.2064C75.8493 19.2064 75.8493 19.219 75.8493 19.2253C75.8804 19.4652 75.924 19.6861 75.9801 19.8943C75.9801 19.9133 75.9925 19.9385 75.9988 19.9575C76.0486 20.1468 76.1109 20.3235 76.1794 20.4939C76.1981 20.5444 76.2168 20.5949 76.2417 20.6391C76.2853 20.7401 76.3352 20.8347 76.385 20.9294C76.4473 21.062 76.522 21.1882 76.5906 21.3081C76.6279 21.3712 76.6715 21.4406 76.7089 21.5038C76.8771 21.7688 77.0577 22.0213 77.2508 22.2738C77.4751 22.5641 77.7056 22.8607 77.9361 23.1763L83.2122 28.5852L79.8422 26.6034L74.5661 21.1945C74.3356 20.8789 74.0989 20.5823 73.8809 20.2857C73.6878 20.0332 73.5071 19.7807 73.3389 19.522C73.3202 19.4904 73.2953 19.4652 73.2766 19.4336C73.2517 19.3957 73.2392 19.3579 73.2143 19.3263C73.1396 19.2064 73.0711 19.0802 73.0088 18.9476C72.9839 18.8971 72.9527 18.8466 72.9278 18.7961C72.9091 18.752 72.8904 18.7078 72.8717 18.6636C72.853 18.6131 72.8281 18.5689 72.8094 18.5184C72.7907 18.4743 72.7721 18.4301 72.7534 18.3859C72.716 18.2786 72.6786 18.165 72.6475 18.0514C72.6412 18.0262 72.635 18.0009 72.6288 17.982C72.6288 17.963 72.6163 17.9441 72.6163 17.9189C72.6039 17.8621 72.5852 17.8116 72.5727 17.7548C72.554 17.6664 72.5353 17.5717 72.5167 17.4771C72.5042 17.4013 72.4917 17.3193 72.4793 17.2435C72.4793 17.2435 72.4793 17.2372 72.4793 17.2309V17.2183C72.4668 17.1362 72.4606 17.0479 72.4544 16.9595C72.4481 16.8775 72.4419 16.7891 72.4357 16.7007C72.4357 16.6124 72.4357 16.524 72.4357 16.4357V16.423C72.4357 16.3094 72.4357 16.2021 72.4357 16.0885L72.417 16.0696Z" fill="#FF71BF"/>
</svg>
