<svg width="170" height="60" viewBox="0 0 170 60" fill="none" xmlns="http://www.w3.org/2000/svg">
<g clip-path="url(#clip0_3597_91429)">
<path d="M74.2241 21.0859L74.2777 47.8357L80.8197 44.1073L80.7661 17.3574L74.2241 21.0859Z" fill="#B2B2B2"/>
<path d="M68 17.4461L74.2702 21.0865L80.7548 17.3581L74.4846 13.7139L68 17.4461Z" fill="#CEE3F2"/>
<path d="M78.1096 17.3505L74.4845 15.2451L70.645 17.45L74.2739 19.5554L78.1096 17.3505Z" fill="#B7CFED"/>
<path d="M74.4844 15.2451V16.2825L77.1984 17.8788L78.1095 17.3505L74.4844 15.2451Z" fill="#B2B2B2"/>
<path d="M74.4845 16.2825L71.5216 17.9591L70.645 17.45L74.4845 15.2451V16.2825Z" fill="#89ACE0"/>
<path d="M74.4424 21.1741L74.4998 47.8894L79.6905 44.8921L79.6331 18.1768L74.4424 21.1741Z" fill="#727272"/>
<path d="M86.0337 14.0654L86.1983 54.6839L95.9175 49.4587L95.661 8.61816L86.0337 14.0654Z" fill="url(#paint0_linear_3597_91429)"/>
<path d="M86.1982 54.6615L92.3535 58.2483L92.2961 31.4142L86.156 27.7585L86.1293 14.0659L74.2511 7.16406L74.274 21.0711L68 17.446L68.0574 44.1614L74.6224 47.9549L86.1982 54.6844V54.6615Z" fill="#B7CFED"/>
<path d="M74.251 7.16399L86.1292 14.0658L95.6608 8.61862L83.7826 1.7168L74.251 7.16399Z" fill="#CEE3F2"/>
<path d="M93.0194 8.61486L83.7825 3.24805L76.896 7.16788L86.1291 12.5347L93.0194 8.61486Z" fill="#B7CFED"/>
<path d="M76.6934 34.9316L76.7355 49.1525L83.7177 53.214L83.6794 38.9893L76.6934 34.9316Z" fill="#FF99CC"/>
<path d="M93.0196 8.61486L91.81 9.31155L83.7827 4.5419V3.24805L93.0196 8.61486Z" fill="#89ACE0"/>
<path d="M92.2466 31.414L92.304 58.2825L102 52.7932L101.943 25.9209L92.2466 31.414Z" fill="url(#paint1_linear_3597_91429)"/>
<path d="M85.999 27.7549L92.296 31.4144L101.935 25.9213L95.634 22.2617L85.999 27.7549Z" fill="#CEE3F2"/>
<path d="M99.2784 25.9176L95.6341 23.8008L88.6558 27.7589L92.3 29.8758L99.2784 25.9176Z" fill="#B7CFED"/>
<path d="M95.6343 23.8008V24.842L98.3598 26.4497L99.2785 25.9176L95.6343 23.8008Z" fill="#89ACE0"/>
<path d="M95.6341 24.842L89.5362 28.2718L88.6558 27.7589L95.6341 23.8008V24.842Z" fill="#89ACE0"/>
<path d="M83.7866 4.5187L77.9681 7.73419L76.9346 7.12937L83.7866 3.23633V4.5187Z" fill="#89ACE0"/>
<path d="M77.8071 36.9805L77.8263 42.6688L79.9661 43.9435L79.9508 38.2514L77.8071 36.9805Z" fill="white"/>
<path d="M80.5557 38.5381L80.5748 44.2264L82.7146 45.5012L82.6993 39.809L80.5557 38.5381Z" fill="white"/>
<path d="M78.0406 12.2287C78.5651 12.5311 78.9862 13.2584 78.9823 13.8594V15.2642L77.0913 14.1733V12.7684C77.0951 12.1712 77.52 11.9301 78.0406 12.2287Z" fill="white"/>
<path d="M78.0406 16.5352C78.5651 16.8376 78.9862 17.5649 78.9823 18.1621V19.567L77.0913 18.476V17.0711C77.0951 16.474 77.52 16.2328 78.0406 16.5314V16.5352Z" fill="white"/>
<path d="M78.0406 20.8409C78.5651 21.1433 78.9862 21.8706 78.9823 22.4678V23.8726L77.0913 22.7817V21.3768C77.0951 20.7796 77.52 20.5385 78.0406 20.8371V20.8409Z" fill="white"/>
<path d="M78.0406 25.1476C78.5651 25.45 78.9862 26.1773 78.9823 26.7745V28.1794L77.0913 27.0922V25.6873C77.0951 25.0902 77.52 24.849 78.0406 25.1476Z" fill="white"/>
<path d="M78.0406 29.4542C78.5651 29.7566 78.9862 30.4839 78.9823 31.0811V32.4859L77.0913 31.3949V29.9901C77.0951 29.3929 77.52 29.1518 78.0406 29.4503V29.4542Z" fill="white"/>
<path d="M82.0255 14.338C82.5499 14.6404 82.971 15.3677 82.9672 15.9648V17.3697L81.0762 16.2787V14.8739C81.0762 14.2767 81.5011 14.0355 82.0217 14.3341L82.0255 14.338Z" fill="white"/>
<path d="M82.0255 18.6436C82.5499 18.946 82.971 19.6733 82.9672 20.2705V21.6754L81.0762 20.5844V19.1795C81.0762 18.5824 81.5011 18.3412 82.0217 18.6398L82.0255 18.6436Z" fill="white"/>
<path d="M82.0255 22.9503C82.5499 23.2527 82.971 23.98 82.9672 24.5771V25.982L81.0762 24.891V23.4862C81.0762 22.889 81.5011 22.6478 82.0217 22.9464L82.0255 22.9503Z" fill="white"/>
<path d="M82.0255 27.2565C82.5499 27.5589 82.971 28.2862 82.9672 28.8834V30.2883L81.0762 29.1973V27.7924C81.0762 27.1953 81.5011 26.9541 82.0217 27.2565H82.0255Z" fill="white"/>
<path d="M82.0255 31.5635C82.5499 31.8659 82.971 32.5933 82.9672 33.1904V34.5953L81.0762 33.5043V32.0995C81.0762 31.5023 81.5011 31.2611 82.0217 31.5597L82.0255 31.5635Z" fill="white"/>
<path d="M71.5714 22.7012C72.0958 23.0036 72.5131 23.731 72.5131 24.3281V25.733L70.6221 24.642V23.2372C70.6259 22.64 71.0508 22.3988 71.5714 22.6974V22.7012Z" fill="white"/>
<path d="M71.5714 27.0079C72.0958 27.3103 72.5131 28.0376 72.5131 28.6348V30.0396L70.6221 28.9487V27.5438C70.6259 26.9466 71.0508 26.7055 71.5714 27.004V27.0079Z" fill="white"/>
<path d="M71.5714 31.3145C72.0958 31.6169 72.5131 32.3442 72.5131 32.9414V34.3463L70.6221 33.2553V31.8504C70.6259 31.2533 71.0508 31.0121 71.5714 31.3107V31.3145Z" fill="white"/>
<path d="M71.5714 35.6208C72.0958 35.9232 72.5131 36.6505 72.5131 37.2477V38.6525L70.6221 37.5616V36.1567C70.6259 35.5595 71.0508 35.3184 71.5714 35.6208Z" fill="white"/>
<path d="M71.5714 39.9317C72.0958 40.2341 72.5131 40.9614 72.5131 41.5586V42.9635L70.6221 41.8725V40.4676C70.6259 39.8705 71.0508 39.6293 71.5714 39.9279V39.9317Z" fill="white"/>
<path d="M88.1617 32.1143C88.6862 32.4167 89.1072 33.144 89.1034 33.7412V35.1461L87.2124 34.0551V32.6502C87.2162 32.0531 87.6411 31.8119 88.1617 32.1105V32.1143Z" fill="white"/>
<path d="M88.1617 36.421C88.6862 36.7234 89.1072 37.4507 89.1034 38.0478V39.4527L87.2124 38.3617V36.9569C87.2162 36.3597 87.6411 36.1186 88.1617 36.4171V36.421Z" fill="white"/>
<path d="M88.1617 40.7272C88.6862 41.0296 89.1072 41.7569 89.1034 42.3541V43.759L87.2124 42.668V41.2631C87.2162 40.666 87.6411 40.4248 88.1617 40.7272Z" fill="white"/>
<path d="M88.1617 45.0342C88.6862 45.3367 89.1072 46.064 89.1034 46.6611V48.066L87.2124 46.975V45.5702C87.2162 44.973 87.6411 44.7318 88.1617 45.0304V45.0342Z" fill="white"/>
<path d="M88.1617 49.3409C88.6862 49.6433 89.1072 50.3706 89.1034 50.9678V52.3726L87.2124 51.2817V49.8768C87.2162 49.2796 87.6411 49.0385 88.1617 49.3371V49.3409Z" fill="white"/>
</g>
<defs>
<linearGradient id="paint0_linear_3597_91429" x1="87.0711" y1="6.42857" x2="92.2427" y2="40.2257" gradientUnits="userSpaceOnUse">
<stop stop-color="#5776C4"/>
<stop offset="1" stop-color="#A6C3ED"/>
</linearGradient>
<linearGradient id="paint1_linear_3597_91429" x1="94.172" y1="23.4404" x2="99.1446" y2="54.891" gradientUnits="userSpaceOnUse">
<stop stop-color="#5776C4"/>
<stop offset="1" stop-color="#A6C3ED"/>
</linearGradient>
<clipPath id="clip0_3597_91429">
<rect width="34" height="56.5659" fill="white" transform="translate(68 1.7168)"/>
</clipPath>
</defs>
</svg>
