<svg width="20" height="20" viewBox="0 0 20 20" fill="none" xmlns="http://www.w3.org/2000/svg">
<path d="M19.2334 0H0.761904C0.33914 0 0 0.343791 0 0.766555V19.2381C0 19.6562 0.33914 20 0.761904 20H19.2334C19.6562 20 20 19.6562 20 19.2381V0.766555C20 0.343791 19.6562 0 19.2334 0ZM15.9303 6.94541L8.73867 14.1371C8.59001 14.2857 8.39489 14.3601 8.19976 14.3601C8.00464 14.3601 7.80952 14.2857 7.66085 14.1371L4.06504 10.5412C3.76771 10.2439 3.76771 9.76074 4.06504 9.45877C4.36237 9.16144 4.84553 9.16144 5.1475 9.45877L8.19976 12.5157L14.8525 5.86295C15.1498 5.56563 15.633 5.56563 15.9303 5.86295C16.2276 6.16493 16.2276 6.64808 15.9303 6.94541Z" fill="#4571E9"/>
</svg>
