<svg width="21" height="20" viewBox="0 0 21 20" fill="none" xmlns="http://www.w3.org/2000/svg">
<path d="M18.1665 11.25V16.25C18.1665 16.4158 18.1007 16.5747 17.9834 16.6919C17.8662 16.8092 17.7073 16.875 17.5415 16.875H3.7915C3.62574 16.875 3.46677 16.8092 3.34956 16.6919C3.23235 16.5747 3.1665 16.4158 3.1665 16.25V11.25C3.1665 11.0842 3.23235 10.9253 3.34956 10.8081C3.46677 10.6908 3.62574 10.625 3.7915 10.625C3.95726 10.625 4.11624 10.6908 4.23345 10.8081C4.35066 10.9253 4.4165 11.0842 4.4165 11.25V15.625H16.9165V11.25C16.9165 11.0842 16.9824 10.9253 17.0996 10.8081C17.2168 10.6908 17.3757 10.625 17.5415 10.625C17.7073 10.625 17.8662 10.6908 17.9834 10.8081C18.1007 10.9253 18.1665 11.0842 18.1665 11.25ZM10.2243 11.6922C10.2824 11.7503 10.3513 11.7964 10.4272 11.8279C10.503 11.8593 10.5844 11.8755 10.6665 11.8755C10.7486 11.8755 10.83 11.8593 10.9058 11.8279C10.9817 11.7964 11.0506 11.7503 11.1087 11.6922L14.2337 8.56719C14.2918 8.50912 14.3378 8.44018 14.3692 8.36431C14.4007 8.28844 14.4169 8.20712 14.4169 8.125C14.4169 8.04288 14.4007 7.96156 14.3692 7.88569C14.3378 7.80982 14.2918 7.74088 14.2337 7.68281C14.1756 7.62474 14.1067 7.57868 14.0308 7.54725C13.9549 7.51583 13.8736 7.49965 13.7915 7.49965C13.7094 7.49965 13.6281 7.51583 13.5522 7.54725C13.4763 7.57868 13.4074 7.62474 13.3493 7.68281L11.2915 9.74141V2.5C11.2915 2.33424 11.2257 2.17527 11.1084 2.05806C10.9912 1.94085 10.8323 1.875 10.6665 1.875C10.5007 1.875 10.3418 1.94085 10.2246 2.05806C10.1074 2.17527 10.0415 2.33424 10.0415 2.5V9.74141L7.98369 7.68281C7.86642 7.56554 7.70736 7.49965 7.5415 7.49965C7.37565 7.49965 7.21659 7.56554 7.09932 7.68281C6.98204 7.80009 6.91616 7.95915 6.91616 8.125C6.91616 8.29085 6.98204 8.44991 7.09932 8.56719L10.2243 11.6922Z" fill="#1E3B80"/>
</svg>
