<svg width="17" height="17" viewBox="0 0 17 17" fill="none" xmlns="http://www.w3.org/2000/svg">
<path d="M12.0636 1.74885C12.1131 1.7982 12.1523 1.85682 12.1791 1.92136C12.2059 1.9859 12.2197 2.0551 12.2197 2.12497C12.2197 2.19485 12.2059 2.26404 12.1791 2.32858C12.1523 2.39313 12.1131 2.45175 12.0636 2.5011L6.06366 8.49997L12.0636 14.4988C12.1634 14.5986 12.2194 14.7339 12.2194 14.875C12.2194 15.016 12.1634 15.1513 12.0636 15.2511C11.9638 15.3509 11.8285 15.4069 11.6875 15.4069C11.5464 15.4069 11.4111 15.3509 11.3113 15.2511L4.93635 8.8761C4.88687 8.82675 4.84762 8.76813 4.82084 8.70358C4.79406 8.63904 4.78027 8.56985 4.78027 8.49997C4.78027 8.4301 4.79406 8.3609 4.82084 8.29636C4.84762 8.23182 4.88687 8.1732 4.93635 8.12385L11.3113 1.74885C11.3607 1.69937 11.4193 1.66012 11.4839 1.63334C11.5484 1.60656 11.6176 1.59277 11.6875 1.59277C11.7574 1.59277 11.8265 1.60656 11.8911 1.63334C11.9556 1.66012 12.0142 1.69937 12.0636 1.74885Z" fill="white"/>
</svg>
