<svg width="17" height="17" viewBox="0 0 17 17" fill="none" xmlns="http://www.w3.org/2000/svg">
<path d="M4.93635 1.74885C4.9857 1.69937 5.04432 1.66012 5.10886 1.63334C5.1734 1.60656 5.2426 1.59277 5.31247 1.59277C5.38235 1.59277 5.45154 1.60656 5.51608 1.63334C5.58063 1.66012 5.63925 1.69937 5.6886 1.74885L12.0636 8.12385C12.1131 8.1732 12.1523 8.23182 12.1791 8.29636C12.2059 8.3609 12.2197 8.4301 12.2197 8.49997C12.2197 8.56985 12.2059 8.63904 12.1791 8.70358C12.1523 8.76813 12.1131 8.82675 12.0636 8.8761L5.6886 15.2511C5.58884 15.3509 5.45355 15.4069 5.31247 15.4069C5.1714 15.4069 5.0361 15.3509 4.93635 15.2511C4.83659 15.1513 4.78055 15.016 4.78055 14.875C4.78055 14.7339 4.83659 14.5986 4.93635 14.4988L10.9363 8.49997L4.93635 2.5011C4.88687 2.45175 4.84762 2.39313 4.82084 2.32858C4.79406 2.26404 4.78027 2.19485 4.78027 2.12497C4.78027 2.0551 4.79406 1.9859 4.82084 1.92136C4.84762 1.85682 4.88687 1.7982 4.93635 1.74885Z" fill="white"/>
</svg>
