<svg width="18" height="6" viewBox="0 0 18 6" fill="none" xmlns="http://www.w3.org/2000/svg">
<rect width="18" height="6" fill="#E5E5E5"/>
<g id="ims.innopolis.or.kr (Korean) by html.to.design &#226;&#157;&#164;&#239;&#184;&#143; FREE version - 02/07/2025, 8:55:15 GMT+9">
<path d="M-7372 -169C-7372 -170.105 -7371.1 -171 -7370 -171H4895C4896.1 -171 4897 -170.105 4897 -169V4195.95C4897 4197.05 4896.1 4197.95 4895 4197.95H-7370C-7371.1 4197.95 -7372 4197.05 -7372 4195.95V-169Z" fill="black"/>
<path d="M-7370 -171V-170H4895V-171V-172H-7370V-171ZM4897 -169H4896V4195.95H4897H4898V-169H4897ZM4895 4197.95V4196.95H-7370V4197.95V4198.95H4895V4197.95ZM-7372 4195.95H-7371V-169H-7372H-7373V4195.95H-7372ZM-7370 4197.95V4196.95C-7370.55 4196.95 -7371 4196.5 -7371 4195.95H-7372H-7373C-7373 4197.61 -7371.66 4198.95 -7370 4198.95V4197.95ZM4897 4195.95H4896C4896 4196.5 4895.55 4196.95 4895 4196.95V4197.95V4198.95C4896.66 4198.95 4898 4197.61 4898 4195.95H4897ZM4895 -171V-170C4895.55 -170 4896 -169.552 4896 -169H4897H4898C4898 -170.657 4896.66 -172 4895 -172V-171ZM-7370 -171V-172C-7371.66 -172 -7373 -170.657 -7373 -169H-7372H-7371C-7371 -169.552 -7370.55 -170 -7370 -170V-171Z" fill="black" fill-opacity="0.1"/>
<g id="&#236;&#158;&#133;&#236;&#163;&#188;&#234;&#180;&#128;&#235;&#166;&#172;&#236;&#139;&#156;&#236;&#138;&#164;&#237;&#133;&#156; &#235;&#169;&#148;&#236;&#157;&#184; &#234;&#176;&#156;&#237;&#142;&#184; 250806">
<rect width="1920" height="1322.06" transform="translate(-1212 -71)" fill="white"/>
<g id="&#236;&#131;&#129;&#235;&#139;&#168; &#237;&#140;&#157;&#236;&#151;&#133;">
<rect width="1920" height="150" transform="translate(-1212 -71)" fill="#306FD9"/>
<g id="Container">
<g id="Background">
<rect x="-99.4102" y="-18.5" width="140.718" height="43" rx="21.5" fill="#1B3C88"/>
<path id="Vector 63" d="M1.30835 5.5H16.3083L11.1864 0.5" stroke="white" stroke-linecap="round"/>
</g>
</g>
</g>
</g>
</g>
</svg>
