<?xml version="1.0" encoding="UTF-8"?>
<svg id="_레이어_1" data-name="레이어_1" xmlns="http://www.w3.org/2000/svg" version="1.1" xmlns:xlink="http://www.w3.org/1999/xlink" viewBox="0 0 99.71 99.71">
  <!-- Generator: Adobe Illustrator 30.5.1, SVG Export Plug-In . SVG Version: 2.1.4 Build 3)  -->
  <defs>
    <style>
      .st0 {
        fill: #0277bd;
      }

      .st1 {
        fill: #0288d1;
      }

      .st2 {
        fill: none;
      }

      .st3 {
        fill: #29b6f6;
      }

      .st4 {
        clip-path: url(#clippath);
      }
    </style>
    <clipPath id="clippath">
      <rect class="st2" width="99.71" height="99.71"/>
    </clipPath>
  </defs>
  <g class="st4">
    <path class="st3" d="M91.4,23.08v53.55c0,2.64-1.64,4.99-4.11,5.86l-18.32,8.6,1.66-22.54V31.16l-1.66-22.54,18.32,8.6c2.47.87,4.11,3.22,4.11,5.86Z"/>
    <path class="st0" d="M18.7,70.41l51.93-39.25V11.12c0-2.49-3.08-3.65-4.73-1.79L9.68,60.74c-1.87,1.72-1.76,4.71.22,6.3,0,0,2.75,2.56,3.75,3.27,1.53,1.09,3.54,1.22,5.05.11Z"/>
    <path class="st1" d="M18.7,29.3l51.93,39.25v20.04c0,2.49-3.08,3.65-4.73,1.79L9.68,38.97c-1.87-1.72-1.76-4.71.22-6.3,0,0,2.75-2.56,3.75-3.27,1.53-1.09,3.54-1.22,5.05-.11Z"/>
  </g>
</svg>