<?xml version="1.0" encoding="UTF-8"?>
<svg id="_레이어_1" data-name="레이어_1" xmlns="http://www.w3.org/2000/svg" version="1.1" xmlns:xlink="http://www.w3.org/1999/xlink" viewBox="0 0 87.65 81.77">
  <!-- Generator: Adobe Illustrator 30.5.1, SVG Export Plug-In . SVG Version: 2.1.4 Build 3)  -->
  <defs>
    <style>
      .st0 {
        fill: url(#Adsız_degrade_3);
      }

      .st1 {
        fill: #fff;
      }

      .st2 {
        fill: #f29818;
      }

      .st3 {
        fill: #191d59;
      }

      .st4 {
        fill: url(#Adsız_degrade_2);
      }

      .st5 {
        fill: url(#Adsız_degrade_21);
      }
    </style>
    <linearGradient id="Adsız_degrade_2" data-name="Adsız degrade 2" x1="-369.57" y1="-255.35" x2="-369.57" y2="-246.16" gradientTransform="translate(26872.7455 -1551.7074) scale(72.583 -6.411)" gradientUnits="userSpaceOnUse">
      <stop offset=".3" stop-color="#3a348c"/>
      <stop offset=".87" stop-color="#191d59"/>
    </linearGradient>
    <linearGradient id="Adsız_degrade_21" data-name="Adsız degrade 2" x1="-369.57" y1="-253.44" x2="-369.57" y2="-244.25" gradientTransform="translate(26872.3705 -1539.188) scale(72.582 -6.41)" xlink:href="#Adsız_degrade_2"/>
    <linearGradient id="Adsız_degrade_3" data-name="Adsız degrade 3" x1="-368.96" y1="-183.41" x2="-368.96" y2="-180.6" gradientTransform="translate(24410.0707 -3760.086) scale(66.028 -20.966)" gradientUnits="userSpaceOnUse">
      <stop offset=".3" stop-color="#3a348c"/>
      <stop offset=".86" stop-color="#191d59"/>
    </linearGradient>
  </defs>
  <path class="st3" d="M24.12,52.17h-13.44c1.78,6.08,5.08,11.54,9.92,16.36,7.71,7.68,16.97,11.52,27.81,11.52,2.11,0,4.22-.15,6.3-.47,8.16-1.23,15.31-4.91,21.43-11.05,4.87-4.82,8.19-10.27,9.98-16.36H24.12Z"/>
  <path class="st3" d="M16.71,33.98h-7.02c-.26,1.56-.43,3.14-.51,4.72h78.46c-.08-1.58-.25-3.16-.52-4.72M9.18,43.07c.08,1.58.25,3.16.51,4.72h77.44c.26-1.54.43-3.11.52-4.72"/>
  <path class="st3" d="M86.13,29.6c-1.79-6.1-5.12-11.58-9.99-16.43-6.11-6.09-13.23-9.74-21.37-10.97-2.11-.32-4.24-.48-6.37-.47-10.84,0-20.11,3.82-27.81,11.44-4.84,4.85-8.14,10.33-9.92,16.43"/>
  <path class="st2" d="M6.85,40.89C6.85,20.23,22.41,3.06,42.67.04c-.5-.02-1.01-.04-1.51-.04C18.42,0,0,18.31,0,40.89s18.42,40.88,41.15,40.88c.51,0,1.01-.02,1.52-.04-20.25-3.02-35.82-20.19-35.82-40.85Z"/>
  <path class="st4" d="M75.11,38.69c-.13-1.59-.4-3.17-.81-4.72H22.52c-.41,1.54-.68,3.12-.81,4.72h53.4Z"/>
  <path class="st5" d="M75.11,43.07H21.71c.13,1.62.4,3.19.81,4.72h51.78c.41-1.52.68-3.1.81-4.72Z"/>
  <path class="st0" d="M48.41,67.6c10.75,0,20.02-6.32,24.29-15.43H24.12c4.27,9.11,13.54,15.43,24.29,15.43Z"/>
  <path class="st1" d="M17.75,43.07h69.84c.04-.7.06-1.4.06-2.11,0-.76-.03-1.52-.07-2.28H9.18c-.05.76-.07,1.52-.07,2.28,0,.71.02,1.41.06,2.1h8.59ZM23.97,29.6h-13.29c-.44,1.43-.72,2.89-.99,4.38h77.19c-.27-1.48-.62-2.94-1.06-4.38M81.83,47.79H9.69c.26,1.49.56,2.95.99,4.38h75.4c.43-1.44.78-2.9,1.04-4.38h-5.29,0Z"/>
</svg>