<?xml version="1.0" encoding="UTF-8"?>
<svg id="_레이어_1" data-name="레이어_1" xmlns="http://www.w3.org/2000/svg" version="1.1" xmlns:xlink="http://www.w3.org/1999/xlink" viewBox="0 0 100.01 100.01">
  <!-- Generator: Adobe Illustrator 30.5.1, SVG Export Plug-In . SVG Version: 2.1.4 Build 3)  -->
  <defs>
    <style>
      .st0 {
        fill: none;
      }

      .st1 {
        clip-path: url(#clippath);
      }
    </style>
    <clipPath id="clippath">
      <rect class="st0" width="100.01" height="100.01"/>
    </clipPath>
  </defs>
  <g class="st1">
    <path d="M50,10c-22.09,0-40,17.91-40,40,0,18.74,12.91,34.43,30.31,38.77-.19-.54-.31-1.17-.31-1.94v-6.84h-5.03c-2.74,0-5.17-1.18-6.35-3.36-1.31-2.43-1.54-6.15-4.78-8.42-.96-.76-.23-1.62.88-1.5,2.05.58,3.75,1.99,5.35,4.07,1.59,2.09,2.34,2.56,5.32,2.56,1.44,0,3.6-.08,5.64-.4,1.09-2.78,2.98-5.33,5.29-6.54-13.32-1.37-19.68-8-19.68-16.99,0-3.87,1.65-7.62,4.45-10.78-.92-3.13-2.08-9.52.35-11.96,5.99,0,9.62,3.89,10.49,4.94,2.99-1.02,6.27-1.6,9.71-1.6s6.75.58,9.74,1.61c.86-1.04,4.49-4.94,10.49-4.94,2.44,2.44,1.27,8.85.34,11.98,2.79,3.15,4.43,6.89,4.43,10.75,0,8.99-6.35,15.61-19.65,16.99,3.66,1.91,6.33,7.28,6.33,11.32v9.11c0,.35-.08.6-.12.89,15.59-5.46,26.79-20.26,26.79-37.72,0-22.09-17.91-40-40-40Z"/>
  </g>
</svg>